<?xml version="1.0" standalone="no"?>
<!DOCTYPE svg PUBLIC "-//W3C//DTD SVG 20010904//EN"
 "http://www.w3.org/TR/2001/REC-SVG-20010904/DTD/svg10.dtd">
<svg version="1.0" xmlns="http://www.w3.org/2000/svg"
 width="1024.000000pt" height="1024.000000pt" viewBox="0 0 1024.000000 1024.000000"
 preserveAspectRatio="xMidYMid meet">
<metadata>
Created by potrace 1.11, written by Peter Selinger 2001-2013
</metadata>
<g transform="translate(0.000000,1024.000000) scale(0.100000,-0.100000)"
fill="#000000" stroke="none">
<path d="M3817 7245 c-48 -16 -83 -49 -105 -95 -16 -32 -17 -166 -22 -1565 -6
-1706 -1 -1592 -77 -1745 -64 -130 -168 -213 -324 -257 -96 -27 -377 -24 -515
5 -181 39 -343 102 -454 177 -71 48 -119 56 -149 24 -29 -31 -198 -317 -224
-380 -31 -73 -20 -93 83 -154 275 -164 575 -249 965 -274 331 -22 669 30 877
135 359 181 566 513 608 974 8 88 10 559 8 1575 -3 1344 -4 1453 -20 1486 -22
46 -68 85 -116 99 -58 16 -488 12 -535 -5z"/>
<path d="M5022 7239 c-29 -15 -50 -35 -65 -63 -20 -38 -22 -55 -22 -221 0
-196 8 -230 60 -268 45 -33 121 -37 676 -37 l549 0 2 -1717 3 -1718 21 -40
c53 -98 78 -105 382 -105 237 0 250 1 292 23 32 15 52 35 70 67 l25 45 3 1723
2 1722 549 0 c327 0 570 4 602 10 63 12 96 34 124 81 18 31 20 52 20 214 0
149 -3 185 -17 210 -22 41 -56 70 -97 84 -25 8 -452 11 -1585 11 l-1551 0 -43
-21z"/>
</g>
</svg>
